<svg id="Capa_1" data-name="Capa 1" xmlns="http://www.w3.org/2000/svg" xmlns:xlink="http://www.w3.org/1999/xlink" viewBox="0 0 730.14 515.2"><defs><style>.cls-1{fill:none;}.cls-2{fill:#dfdfe1;}.cls-3{clip-path:url(#clip-path);}.cls-4{fill:#c4c4c8;}.cls-5{fill:#adadb0;}.cls-6{fill:#006def;}</style><clipPath id="clip-path"><path class="cls-1" d="M43.63,515.2h647.1a39.39,39.39,0,0,0,39.41-39.41V42.51A39.39,39.39,0,0,0,690.73,3.1H43.63A39.39,39.39,0,0,0,4.23,42.51V475.79A39.39,39.39,0,0,0,43.63,515.2Z"/></clipPath></defs><title>dinners</title><path id="SVGID" class="cls-2" d="M43.63,515.2h647.1a39.39,39.39,0,0,0,39.41-39.41V42.51A39.39,39.39,0,0,0,690.73,3.1H43.63A39.39,39.39,0,0,0,4.23,42.51V475.79A39.39,39.39,0,0,0,43.63,515.2Z"/><g class="cls-3"><rect class="cls-2" x="-22.74" y="-69.21" width="835.08" height="622.02"/></g><g class="cls-3"><path class="cls-2" d="M67.86,504H703.56a45.16,45.16,0,0,0,45.16-45.16V36.95A45.16,45.16,0,0,0,703.56-8.21H67.86A45.16,45.16,0,0,0,22.71,36.95V458.82A45.16,45.16,0,0,0,67.86,504Z"/></g><g class="cls-3"><rect class="cls-4" x="4.23" y="-37.06" width="364.84" height="592.52"/></g><path class="cls-5" d="M36.85,473V45.24C36.85,22,55.32,3,78.23,3H45.61C22.8,3,4.23,21.86,4.23,45.24V473c0,23.29,18.48,42.23,41.39,42.23H78.23C55.32,515.2,36.85,496.35,36.85,473Z"/><path class="cls-6" d="M306.85,202.21c-29.6,5.37-52.51,37-52.51,75.42s22.91,70,52.51,75.42Z"/><path class="cls-6" d="M360.59,202.21V353c29.6-5.37,52.51-37,52.51-75.42S390.19,207.58,360.59,202.21Z"/><path class="cls-6" d="M421,132H317c-71.84,0-130,66-130,147.26s58.17,147.35,130,147.35H421c71.84,0,130-66,130-147.26S492.85,132,421,132ZM333.25,406.22c-68.07,0-123.5-55.34-123.5-123.41s55.43-123.41,123.5-123.41,123.5,55.34,123.5,123.41S401.31,406.22,333.25,406.22Z"/></svg>