<svg id="Capa_1" data-name="Capa 1" xmlns="http://www.w3.org/2000/svg" xmlns:xlink="http://www.w3.org/1999/xlink" viewBox="0 0 730.14 515.2"><defs><style>.cls-1{fill:none;}.cls-2{fill:#f2f2f2;}.cls-3{clip-path:url(#clip-path);}.cls-4{fill:#d4d4d4;}.cls-5{fill:#ff0015;}.cls-6{fill:#ffa000;opacity:0.76;}.cls-6,.cls-7,.cls-8{isolation:isolate;}.cls-7{font-size:77.6px;}.cls-7,.cls-8{font-family:NexaBold, Nexa Bold;}.cls-8{font-size:31.55px;letter-spacing:0.05em;}</style><clipPath id="clip-path"><path class="cls-1" d="M41.52,515.2h647.1A39.39,39.39,0,0,0,728,475.79V42.51A39.39,39.39,0,0,0,688.62,3.1H41.52A39.39,39.39,0,0,0,2.11,42.51V475.79A39.45,39.45,0,0,0,41.52,515.2Z"/></clipPath></defs><title>mastercard</title><path id="SVGID" class="cls-2" d="M41.52,515.2h647.1A39.39,39.39,0,0,0,728,475.79V42.51A39.39,39.39,0,0,0,688.62,3.1H41.52A39.39,39.39,0,0,0,2.11,42.51V475.79A39.45,39.45,0,0,0,41.52,515.2Z"/><g class="cls-3"><rect class="cls-2" x="-24.75" y="-69.21" width="835.08" height="622.02"/></g><g class="cls-3"><path class="cls-2" d="M65.75,504H701.44a45.16,45.16,0,0,0,45.16-45.16V36.95A45.16,45.16,0,0,0,701.44-8.21H65.75A45.16,45.16,0,0,0,20.59,36.95V458.82A45.28,45.28,0,0,0,65.75,504Z"/></g><path class="cls-4" d="M34.73,473V45.24C34.73,22,53.21,3,76.12,3H43.5C20.69,3,2.11,21.86,2.11,45.24V473c0,23.29,18.48,42.23,41.39,42.23H76.12C53.3,515.2,34.73,496.35,34.73,473Z"/><circle class="cls-5" cx="287.29" cy="216.35" r="126.8"/><circle class="cls-6" cx="443.79" cy="216.35" r="126.8"/><text class="cls-7" transform="translate(146.27 441.27) scale(1.01 1)">mastercard</text><text class="cls-8" transform="translate(604.65 443.26)">®</text></svg>