<?xml version="1.0" encoding="utf-8"?>
<!-- Generator: Adobe Illustrator 19.2.1, SVG Export Plug-In . SVG Version: 6.00 Build 0)  -->
<svg version="1.1" id="Capa_1" xmlns="http://www.w3.org/2000/svg" xmlns:xlink="http://www.w3.org/1999/xlink" x="0px" y="0px"
	 viewBox="0 0 770.1 532.5" style="enable-background:new 0 0 770.1 532.5;" xml:space="preserve">
<style type="text/css">
	.st0{clip-path:url(#SVGID_2_);fill:#0070C9;}
	.st1{clip-path:url(#SVGID_4_);fill:none;}
	.st2{clip-path:url(#SVGID_6_);fill:#FFFFFF;}
	.st3{clip-path:url(#SVGID_8_);fill:#FFFFFF;}
	.st4{clip-path:url(#SVGID_10_);fill:#FFFFFF;}
	.st5{clip-path:url(#SVGID_12_);fill:#FFFFFF;}
	.st6{clip-path:url(#SVGID_14_);fill:#0070C9;}
	.st7{clip-path:url(#SVGID_16_);fill:#0070C9;}
	.st8{clip-path:url(#SVGID_18_);fill:#0070C9;}
	.st9{clip-path:url(#SVGID_20_);fill:#0070C9;}
	.st10{clip-path:url(#SVGID_22_);fill:#0070C9;}
	.st11{clip-path:url(#SVGID_24_);fill:#0070C9;}
	.st12{clip-path:url(#SVGID_26_);fill:#0070C9;}
	.st13{clip-path:url(#SVGID_28_);fill:#0070C9;}
	.st14{clip-path:url(#SVGID_30_);fill:#0070C9;}
	.st15{clip-path:url(#SVGID_32_);fill:#0070C9;}
	.st16{clip-path:url(#SVGID_34_);fill:#0070C9;}
	.st17{clip-path:url(#SVGID_36_);fill:#0070C9;}
	.st18{fill:#0063B1;}
</style>
<g>
	<g>
		<g>
			<defs>
				<path id="SVGID_1_" d="M41.4,532.4h687.3c22.8,0,41.4-18.5,41.4-41.4V41.4c0-22.8-18.5-41.4-41.4-41.4H41.4
					C18.6,0,0,18.5,0,41.4v449.7C0,513.9,18.5,532.4,41.4,532.4z"/>
			</defs>
			<clipPath id="SVGID_2_">
				<use xlink:href="#SVGID_1_"  style="overflow:visible;"/>
			</clipPath>
			<rect x="-28.6" y="-75.2" class="st0" width="885.8" height="646.7"/>
		</g>
		<g>
			<defs>
				<path id="SVGID_3_" d="M41.4,532.4h687.3c22.8,0,41.4-18.5,41.4-41.4V41.4c0-22.8-18.5-41.4-41.4-41.4H41.4
					C18.6,0,0,18.5,0,41.4v449.7C0,513.9,18.5,532.4,41.4,532.4z"/>
			</defs>
			<clipPath id="SVGID_4_">
				<use xlink:href="#SVGID_3_"  style="overflow:visible;"/>
			</clipPath>
			<path class="st1" d="M67,520.7h675.3c26.2,0,47.4-21.2,47.4-47.4V35.7c0-26.2-21.2-47.4-47.4-47.4H67
				c-26.2,0-47.4,21.2-47.4,47.4v437.6C19.6,499.5,40.8,520.7,67,520.7z"/>
		</g>
		<g>
			<defs>
				<path id="SVGID_5_" d="M41.4,532.4h687.3c22.8,0,41.4-18.5,41.4-41.4V41.4c0-22.8-18.5-41.4-41.4-41.4H41.4
					C18.6,0,0,18.5,0,41.4v449.7C0,513.9,18.5,532.4,41.4,532.4z"/>
			</defs>
			<clipPath id="SVGID_6_">
				<use xlink:href="#SVGID_5_"  style="overflow:visible;"/>
			</clipPath>
			<polygon class="st2" points="715.3,329 715.9,281.2 675.3,281.2 			"/>
		</g>
		<g>
			<defs>
				<path id="SVGID_7_" d="M41.4,532.4h687.3c22.8,0,41.4-18.5,41.4-41.4V41.4c0-22.8-18.5-41.4-41.4-41.4H41.4
					C18.6,0,0,18.5,0,41.4v449.7C0,513.9,18.5,532.4,41.4,532.4z"/>
			</defs>
			<clipPath id="SVGID_8_">
				<use xlink:href="#SVGID_7_"  style="overflow:visible;"/>
			</clipPath>
			<path class="st3" d="M203,386.5h479.7c0,0,35.3,3.1,37.6-36.1c1.5-25.6-37.6-70.7-37.6-70.7H203V386.5z"/>
		</g>
		<g>
			<defs>
				<path id="SVGID_9_" d="M41.4,532.4h687.3c22.8,0,41.4-18.5,41.4-41.4V41.4c0-22.8-18.5-41.4-41.4-41.4H41.4
					C18.6,0,0,18.5,0,41.4v449.7C0,513.9,18.5,532.4,41.4,532.4z"/>
			</defs>
			<clipPath id="SVGID_10_">
				<use xlink:href="#SVGID_9_"  style="overflow:visible;"/>
			</clipPath>
			<polygon class="st4" points="109.8,203 81.2,204.5 61.7,257.2 109.8,257.2 			"/>
		</g>
		<g>
			<defs>
				<path id="SVGID_11_" d="M41.4,532.4h687.3c22.8,0,41.4-18.5,41.4-41.4V41.4c0-22.8-18.5-41.4-41.4-41.4H41.4
					C18.6,0,0,18.5,0,41.4v449.7C0,513.9,18.5,532.4,41.4,532.4z"/>
			</defs>
			<clipPath id="SVGID_12_">
				<use xlink:href="#SVGID_11_"  style="overflow:visible;"/>
			</clipPath>
			<polygon class="st5" points="687.3,257.2 57.1,257.2 76.7,210.6 99.3,151.9 687.3,151.9 			"/>
		</g>
		<g>
			<defs>
				<path id="SVGID_13_" d="M41.4,532.4h687.3c22.8,0,41.4-18.5,41.4-41.4V41.4c0-22.8-18.5-41.4-41.4-41.4H41.4
					C18.6,0,0,18.5,0,41.4v449.7C0,513.9,18.5,532.4,41.4,532.4z"/>
			</defs>
			<clipPath id="SVGID_14_">
				<use xlink:href="#SVGID_13_"  style="overflow:visible;"/>
			</clipPath>
			<path class="st6" d="M670.4,312.8h32.5v-16.1h-35.1c-18.3,0-25.1,11.8-25.1,22.6c0,23.6,20.4,22.6,36.6,23.1
				c3.1,0,5.2,0.5,6.3,1.6c1,1.1,2.1,3.2,2.1,5.4c0,2.1-1,3.8-2.1,4.8c-1.1,1.1-3.7,1.6-6.8,1.6h-34v16.1h34
				c17.8,0,27.7-7.5,27.7-23.6c0-7.5-2.1-12.4-5.2-16.1c-4.2-3.8-10.5-5.9-20.4-5.9h-9.4c-2.6,0-4.7-0.5-6.8-1.1
				c-2.1-1.1-3.7-2.7-3.7-5.4c0-2.7,1-4.3,2.6-5.9C665.1,312.8,667.2,312.8,670.4,312.8z"/>
		</g>
		<g>
			<defs>
				<path id="SVGID_15_" d="M41.4,532.4h687.3c22.8,0,41.4-18.5,41.4-41.4V41.4c0-22.8-18.5-41.4-41.4-41.4H41.4
					C18.6,0,0,18.5,0,41.4v449.7C0,513.9,18.5,532.4,41.4,532.4z"/>
			</defs>
			<clipPath id="SVGID_16_">
				<use xlink:href="#SVGID_15_"  style="overflow:visible;"/>
			</clipPath>
			<polygon class="st7" points="339,182.8 339,167.2 280.4,167.2 280.4,242.4 339,242.4 339,226.8 298.2,226.8 298.2,211.8 
				338.5,211.8 338.5,196.2 298.2,196.2 298.2,182.8 			"/>
		</g>
		<g>
			<defs>
				<path id="SVGID_17_" d="M41.4,532.4h687.3c22.8,0,41.4-18.5,41.4-41.4V41.4c0-22.8-18.5-41.4-41.4-41.4H41.4
					C18.6,0,0,18.5,0,41.4v449.7C0,513.9,18.5,532.4,41.4,532.4z"/>
			</defs>
			<clipPath id="SVGID_18_">
				<use xlink:href="#SVGID_17_"  style="overflow:visible;"/>
			</clipPath>
			<path class="st8" d="M267.3,242.4v-75.2h-28.8l-21.5,51l-23-51h-28.3v70.9l-29.8-70.9h-26.2l-31.4,75.2h18.8l6.8-16.6h36.6
				l6.8,16.6H183v-59.1l25.6,59.1h15.2l25.7-59.1v59.1H267.3z M110.2,209.7l12-29.5l12,29.5H110.2z"/>
		</g>
		<g>
			<defs>
				<path id="SVGID_19_" d="M41.4,532.4h687.3c22.8,0,41.4-18.5,41.4-41.4V41.4c0-22.8-18.5-41.4-41.4-41.4H41.4
					C18.6,0,0,18.5,0,41.4v449.7C0,513.9,18.5,532.4,41.4,532.4z"/>
			</defs>
			<clipPath id="SVGID_20_">
				<use xlink:href="#SVGID_19_"  style="overflow:visible;"/>
			</clipPath>
			<path class="st9" d="M669.8,281.6h32.5V-20c-32.9,0.3-65.7,0.7-98.6,1.2c-175.5,2.7-351.5,5.2-525.9-16.6v237.6l21.5-49.9h45.5
				l6.3,12.4v-12.5h53.4l12,26.8l11.5-26.8h170.1c7.8,0,14.7,1.6,19.9,5.9v-5.9h46.6v5.9c7.8-4.3,17.8-5.9,29.3-5.9h67.5l6.3,12.4
				v-12.4h49.7l7.3,12.4v-12.4h48.7v105.3h-49.2l-9.4-16.1v16.1h-61.3l-6.8-17.2h-15.2l-6.8,17.2h-31.9c-12.6,0-22-3.2-28.3-6.4v6.4
				h-75.9v-24.2c0-3.2-0.5-3.8-2.6-3.8h-2.6v27.9H236.9V244l-5.2,13.4h-30.9l-5.2-12.9v12.9h-59.2l-6.3-17.2h-15.2l-6.8,17.2H77.8
				v283.2c46,0.7,92.1,1.2,138.1,1.6c162.1,1.4,324.3,1.4,486.4,1.4V382c-6.8,3.2-16.2,4.8-25.7,4.8h-45.5v-6.4
				c-5.2,4.3-14.7,6.4-23.6,6.4H464.1v-24.2c0-3.2-0.5-3.2-3.1-3.2h-2.6v27.4h-47.1v-28.5c-7.8,3.8-16.7,3.8-24.6,3.8h-5.2v24.7
				h-57.6l-13.6-16.1L295,386.9h-92.7V281.6h94.2l13.6,16.1l14.7-16.1h63.3c7.3,0,19.4,1.1,24.6,6.4v-6.4h56.5
				c5.8,0,16.8,1.1,24.1,6.4v-6.4h85.3v6.4c4.7-4.3,13.6-6.4,21.5-6.4h47.6v6.4C653.1,284.3,660.4,281.6,669.8,281.6z"/>
		</g>
		<g>
			<defs>
				<path id="SVGID_21_" d="M41.4,532.4h687.3c22.8,0,41.4-18.5,41.4-41.4V41.4c0-22.8-18.5-41.4-41.4-41.4H41.4
					C18.6,0,0,18.5,0,41.4v449.7C0,513.9,18.5,532.4,41.4,532.4z"/>
			</defs>
			<clipPath id="SVGID_22_">
				<use xlink:href="#SVGID_21_"  style="overflow:visible;"/>
			</clipPath>
			<path class="st10" d="M422.2,187.6c0-8.6-3.7-13.4-9.4-17.2l0,0c-5.8-3.2-12-3.2-20.9-3.2h-40.3v75.2h17.3V215h18.8
				c6.3,0,10.5,0.5,13.1,3.2c3.1,3.8,2.6,10.2,2.6,14.5v9.7h17.8v-15c0-6.4-0.5-9.7-3.1-13.4c-1.6-2.1-4.7-4.8-8.4-6.4
				C414.4,205.4,422.2,199.5,422.2,187.6z M399.2,197.8c-2.6,1.6-5.2,1.6-8.9,1.6h-21.5v-16.6h21.5c3.1,0,6.8,0,8.9,1.1
				c2.1,1.6,3.1,3.8,3.1,7S401.3,196.8,399.2,197.8z"/>
		</g>
		<g>
			<defs>
				<path id="SVGID_23_" d="M41.4,532.4h687.3c22.8,0,41.4-18.5,41.4-41.4V41.4c0-22.8-18.5-41.4-41.4-41.4H41.4
					C18.6,0,0,18.5,0,41.4v449.7C0,513.9,18.5,532.4,41.4,532.4z"/>
			</defs>
			<clipPath id="SVGID_24_">
				<use xlink:href="#SVGID_23_"  style="overflow:visible;"/>
			</clipPath>
			<path class="st11" d="M497.1,317.1c0-8.6-3.1-13.4-8.9-16.6s-12.6-3.8-21.5-3.8h-40.3v75.2h17.8v-27.4H463
				c6.3,0,9.9,0.5,12.6,3.2c3.1,3.8,3.1,10.2,3.1,15v9.1H496v-14.5c0-7-0.5-10.2-2.6-14c-1.6-2.2-4.7-4.8-8.9-6.4
				C489.2,335.3,497.1,328.9,497.1,317.1z M474.1,327.8c-2.6,1.1-5.2,1.1-8.4,1.1l-21.5,0.5v-17.2h21.5c3.1,0,6.3,0,8.4,1.6
				c2.1,1.1,3.7,3.2,3.7,6.4C477.7,323.5,476.1,326.2,474.1,327.8z"/>
		</g>
		<g>
			<defs>
				<path id="SVGID_25_" d="M41.4,532.4h687.3c22.8,0,41.4-18.5,41.4-41.4V41.4c0-22.8-18.5-41.4-41.4-41.4H41.4
					C18.6,0,0,18.5,0,41.4v449.7C0,513.9,18.5,532.4,41.4,532.4z"/>
			</defs>
			<clipPath id="SVGID_26_">
				<use xlink:href="#SVGID_25_"  style="overflow:visible;"/>
			</clipPath>
			<path class="st12" d="M610.2,355.7h-34v16.1h34c17.8,0,27.7-7.5,27.7-23.6c0-7.5-2.1-12.4-5.2-16.1c-4.2-3.8-10.5-5.9-20.4-5.9
				h-9.4c-2.6,0-4.7-0.5-6.8-1.1c-2.1-1.1-3.7-2.7-3.7-5.4c0-2.7,0.5-4.3,2.6-5.9c1.6-1.1,3.7-1.1,6.8-1.1h32.5v-16.1h-35.1
				c-18.8,0-25.1,11.8-25.1,22.6c0,23.6,20.4,22.6,36.6,23.1c3.1,0,5.2,0.5,6.3,1.6c1,1.1,2.1,3.2,2.1,5.4c0,2.1-1.1,3.8-2.1,4.8
				C615.4,355.2,613.3,355.7,610.2,355.7z"/>
		</g>
		<g>
			<defs>
				<path id="SVGID_27_" d="M41.4,532.4h687.3c22.8,0,41.4-18.5,41.4-41.4V41.4c0-22.8-18.5-41.4-41.4-41.4H41.4
					C18.6,0,0,18.5,0,41.4v449.7C0,513.9,18.5,532.4,41.4,532.4z"/>
			</defs>
			<clipPath id="SVGID_28_">
				<use xlink:href="#SVGID_27_"  style="overflow:visible;"/>
			</clipPath>
			<polygon class="st13" points="565.7,312.2 565.7,296.7 507,296.7 507,371.8 565.7,371.8 565.7,356.3 524.3,356.3 524.3,341.2 
				564.6,341.2 564.6,326.2 524.3,326.2 524.3,312.2 			"/>
		</g>
		<g>
			<defs>
				<path id="SVGID_29_" d="M41.4,532.4h687.3c22.8,0,41.4-18.5,41.4-41.4V41.4c0-22.8-18.5-41.4-41.4-41.4H41.4
					C18.6,0,0,18.5,0,41.4v449.7C0,513.9,18.5,532.4,41.4,532.4z"/>
			</defs>
			<clipPath id="SVGID_30_">
				<use xlink:href="#SVGID_29_"  style="overflow:visible;"/>
			</clipPath>
			<rect x="432.2" y="167.2" class="st14" width="17.8" height="75.2"/>
		</g>
		<g>
			<defs>
				<path id="SVGID_31_" d="M41.4,532.4h687.3c22.8,0,41.4-18.5,41.4-41.4V41.4c0-22.8-18.5-41.4-41.4-41.4H41.4
					C18.6,0,0,18.5,0,41.4v449.7C0,513.9,18.5,532.4,41.4,532.4z"/>
			</defs>
			<clipPath id="SVGID_32_">
				<use xlink:href="#SVGID_31_"  style="overflow:visible;"/>
			</clipPath>
			<path class="st15" d="M388.7,296.7h-56l-22.5,24.7l-21.5-24.7H218v75.2h69.6l22.5-24.7l21.5,24.7h34v-25.2h22
				c15.2,0,30.4-4.3,30.4-25.2C418,301,402.3,296.7,388.7,296.7z M278.8,356.3h-43.4v-15h38.7v-15h-38.7v-14h44l19.4,22L278.8,356.3
				z M348.4,365.4l-27.2-31.2l27.2-29.5L348.4,365.4L348.4,365.4z M388.7,331.6h-23v-19.4h23c6.3,0,10.5,2.7,10.5,9.1
				C399.2,327.8,395,331.6,388.7,331.6z"/>
		</g>
		<g>
			<defs>
				<path id="SVGID_33_" d="M41.4,532.4h687.3c22.8,0,41.4-18.5,41.4-41.4V41.4c0-22.8-18.5-41.4-41.4-41.4H41.4
					C18.6,0,0,18.5,0,41.4v449.7C0,513.9,18.5,532.4,41.4,532.4z"/>
			</defs>
			<clipPath id="SVGID_34_">
				<use xlink:href="#SVGID_33_"  style="overflow:visible;"/>
			</clipPath>
			<path class="st16" d="M495,183.3h16.7v-16.1H495c-12,0-21.5,2.7-26.7,8.6c-7.8,8.1-9.4,18.3-9.4,29.5c0,13.4,3.1,22,8.9,28.5
				c6.3,6.4,17.3,8.6,25.6,8.6h20.4l6.8-16.6h36.6l6.8,16.6h35.6V186l33,56.4h25.1v-75.2H640v52.1l-30.9-52.1h-27.2v70.9l-29.3-70.9
				h-26.2l-25.1,59.1h-7.9c-4.7,0-9.4-1.1-12-3.8c-3.1-3.8-4.7-9.7-4.7-17.7c0-8.1,1.6-14,4.7-17.2C485,184.4,488.7,183.3,495,183.3
				z M539,180.1l12,29.5h-24.1L539,180.1z"/>
		</g>
		<g>
			<defs>
				<path id="SVGID_35_" d="M41.4,532.4h687.3c22.8,0,41.4-18.5,41.4-41.4V41.4c0-22.8-18.5-41.4-41.4-41.4H41.4
					C18.6,0,0,18.5,0,41.4v449.7C0,513.9,18.5,532.4,41.4,532.4z"/>
			</defs>
			<clipPath id="SVGID_36_">
				<use xlink:href="#SVGID_35_"  style="overflow:visible;"/>
			</clipPath>
			<path class="st17" d="M674.8,281.7"/>
		</g>
	</g>
	<path class="st18" d="M34.6,488.5V43.9C34.6,19.7,54.2,0,78.5,0H43.9C19.7,0,0,19.6,0,43.9v444.7c0,24.2,19.6,43.9,43.9,43.9h34.6
		C54.2,532.4,34.6,512.8,34.6,488.5z"/>
</g>
</svg>
